<?xml version="1.0" encoding="UTF-8"?>
<svg width="64px" height="64px" viewBox="0 0 64 64" version="1.1" xmlns="http://www.w3.org/2000/svg" xmlns:xlink="http://www.w3.org/1999/xlink">
    <!-- Generator: Sketch 53.2 (72643) - https://sketchapp.com -->
    <title>Combined Shape</title>
    <desc>Created with Sketch.</desc>
    <g id="Icons" stroke="none" stroke-width="1" fill="none" fill-rule="evenodd">
        <g id="checkmark" transform="translate(-0.550253, -0.671573)" fill="#000000">
            <path d="M32.5502525,64.6715729 C14.8771405,64.6715729 0.550252532,50.3446849 0.550252532,32.6715729 C0.550252532,14.9984609 14.8771405,0.671572875 32.5502525,0.671572875 C50.2233645,0.671572875 64.5502525,14.9984609 64.5502525,32.6715729 C64.5502525,50.3446849 50.2233645,64.6715729 32.5502525,64.6715729 Z M23.9868191,41.1583919 L14.9748737,32.1464466 C13.6080387,30.7796116 11.3919613,30.7796116 10.0251263,32.1464466 C8.65829124,33.5132816 8.65829124,35.7293591 10.0251263,37.0961941 L21.3388348,48.4099026 C22.0065271,49.0775949 22.8768721,49.4191228 23.75188,49.4344861 C24.7718372,49.5473704 25.8319249,49.212781 26.6139881,48.4307179 L52.0698322,22.9748737 C53.4366672,21.6080387 53.4366672,19.3919613 52.0698322,18.0251263 C50.7029972,16.6582912 48.4869197,16.6582912 47.1200847,18.0251263 L23.9868191,41.1583919 Z" id="Combined-Shape"></path>
        </g>
    </g>
</svg>