<svg xmlns="http://www.w3.org/2000/svg" xmlns:xlink="http://www.w3.org/1999/xlink" viewBox="0 0 211.92 66.07"><defs><style>.cls-1{fill:#262626;stroke:#262626;stroke-miterlimit:10;stroke-width:1.5px;}.cls-2{fill:url(#linear-gradient);}.cls-3{fill:#231f20;opacity:0.09;}.cls-4{opacity:0.81;}.cls-5{opacity:0.55;fill:url(#linear-gradient-2);}.cls-6{fill:url(#linear-gradient-3);}.cls-7{fill:url(#linear-gradient-4);}</style><linearGradient id="linear-gradient" x1="-1.16" y1="2.35" x2="-1.28" y2="2.23" gradientUnits="userSpaceOnUse"><stop offset="0" stop-color="#f23558"/><stop offset="1" stop-color="#174dff"/></linearGradient><linearGradient id="linear-gradient-2" x1="29.4" y1="18.37" x2="29.97" y2="76.96" gradientUnits="userSpaceOnUse"><stop offset="0" stop-color="#231f20"/><stop offset="0.15" stop-color="#231f20" stop-opacity="0"/><stop offset="0.29" stop-color="#231f20" stop-opacity="0"/><stop offset="0.3" stop-color="#231f20" stop-opacity="0"/><stop offset="0.37" stop-color="#231f20" stop-opacity="0.16"/><stop offset="0.47" stop-color="#231f20" stop-opacity="0.61"/><stop offset="0.53" stop-color="#231f20"/><stop offset="0.71" stop-color="#231f20"/></linearGradient><linearGradient id="linear-gradient-3" x1="28.98" y1="74.99" x2="87.99" y2="74.99" gradientUnits="userSpaceOnUse"><stop offset="0.15" stop-color="#174dff"/><stop offset="0.87" stop-color="#f23558"/></linearGradient><linearGradient id="linear-gradient-4" x1="29.01" y1="29.09" x2="88.66" y2="29.09" gradientUnits="userSpaceOnUse"><stop offset="0" stop-color="#f23558"/><stop offset="0.14" stop-color="#da386a"/><stop offset="0.43" stop-color="#9d3e99"/><stop offset="0.85" stop-color="#3c49e3"/><stop offset="1" stop-color="#174dff"/></linearGradient></defs><g id="Layer_2" data-name="Layer 2"><g id="Layer_2-2" data-name="Layer 2"><path class="cls-1" d="M110.28,73.48a1.46,1.46,0,0,1,.44-1.1,1.51,1.51,0,0,1,1.11-.45H123.4q4.65,0,7.13-2.15T133,62.62a8.06,8.06,0,0,0-.57-3.25,4.94,4.94,0,0,0-1.76-2.09,10.61,10.61,0,0,0-3-1.31c-1.24-.34-2.69-.67-4.36-1s-3.47-.73-5-1.11a13.71,13.71,0,0,1-4.15-1.7,7.86,7.86,0,0,1-2.8-3.1,11.62,11.62,0,0,1-1-5.31,12,12,0,0,1,.89-4.92,8,8,0,0,1,2.6-3.25,10.56,10.56,0,0,1,4.11-1.79,25.12,25.12,0,0,1,5.46-.54h10.08a1.7,1.7,0,0,1,1.26.48,1.5,1.5,0,0,1,.47,1.07,1.62,1.62,0,0,1-1.61,1.61h-10.2A14.13,14.13,0,0,0,116,38q-2.66,1.62-2.65,5.73a8.08,8.08,0,0,0,.74,3.73,5.85,5.85,0,0,0,2.12,2.24A11.49,11.49,0,0,0,119.55,51c1.29.3,2.74.59,4.33.86a47.59,47.59,0,0,1,5.19,1.23A11.66,11.66,0,0,1,132.89,55a7.87,7.87,0,0,1,2.38,3,11.07,11.07,0,0,1,.84,4.59q0,6.69-3.22,9.55T123.4,75H111.83a1.46,1.46,0,0,1-1.11-.48A1.49,1.49,0,0,1,110.28,73.48Z" transform="translate(-28.98 -19.01)"/><path class="cls-1" d="M144.4,40.25a1.59,1.59,0,0,1,.45-1.13,1.44,1.44,0,0,1,1.1-.48,1.52,1.52,0,0,1,1.13.48,1.54,1.54,0,0,1,.48,1.13v4.89h7.94a1.59,1.59,0,0,1,1.67,1.61,1.51,1.51,0,0,1-.45,1.11,1.61,1.61,0,0,1-1.16.44h-8V65.13a8.47,8.47,0,0,0,1.25,5q1.26,1.69,4.54,1.7h2.21a1.52,1.52,0,0,1,1.16.48,1.59,1.59,0,0,1,.45,1.13,1.47,1.47,0,0,1-.45,1.1,1.58,1.58,0,0,1-1.16.45h-2.21q-4.89,0-6.92-2.53t-2-7.37V48.3h-3.16a1.5,1.5,0,0,1-1.55-1.55,1.64,1.64,0,0,1,.44-1.13,1.46,1.46,0,0,1,1.11-.48h3.16Z" transform="translate(-28.98 -19.01)"/><path class="cls-1" d="M168,65.13a7.58,7.58,0,0,0,.51,2.83,7,7,0,0,0,1.34,2.18,6.11,6.11,0,0,0,2,1.4,5.77,5.77,0,0,0,2.39.51h10V46.39a1.76,1.76,0,0,1,.48-1.19,1.46,1.46,0,0,1,1.13-.54,1.42,1.42,0,0,1,1.11.51,1.68,1.68,0,0,1,.44,1.11V72.53a2.56,2.56,0,0,1-.68,1.76,2.39,2.39,0,0,1-1.82.74H174.17a9.65,9.65,0,0,1-3.58-.66,8.79,8.79,0,0,1-3-1.93,9,9,0,0,1-2.06-3.14,11,11,0,0,1-.75-4.17V46.28a1.59,1.59,0,0,1,.48-1.11,1.51,1.51,0,0,1,1.13-.51,1.42,1.42,0,0,1,1.11.51,1.63,1.63,0,0,1,.44,1.11Z" transform="translate(-28.98 -19.01)"/><path class="cls-1" d="M195,35.36a1.58,1.58,0,0,1,.45-1.17,1.52,1.52,0,0,1,1.1-.44,1.6,1.6,0,0,1,1.13.44,1.53,1.53,0,0,1,.48,1.17v9.3h9.9a9.68,9.68,0,0,1,3.55.66,8.79,8.79,0,0,1,3,1.94,9.22,9.22,0,0,1,2.06,3.13,11.45,11.45,0,0,1,.74,4.24v9.19a14.33,14.33,0,0,1-.51,3.57,11.93,11.93,0,0,1-1.61,3.67,9.22,9.22,0,0,1-2.92,2.84A8.27,8.27,0,0,1,207.94,75H197.5a2.54,2.54,0,0,1-2.51-2.5Zm3.16,36.51h9.79a5.55,5.55,0,0,0,4.53-2.27,9.36,9.36,0,0,0,1.79-6v-9a7.63,7.63,0,0,0-.51-2.84,7.13,7.13,0,0,0-1.34-2.2,5.79,5.79,0,0,0-4.36-1.94h-9.9Z" transform="translate(-28.98 -19.01)"/><path class="cls-1" d="M225.06,46.28a1.72,1.72,0,0,1,.41-1.14,1.44,1.44,0,0,1,1.14-.48,1.54,1.54,0,0,1,1.13.48,1.56,1.56,0,0,1,.48,1.14v1.19q2.81-2.8,8.47-2.81h1.85a1.6,1.6,0,0,1,1.16.42,1.41,1.41,0,0,1,.45,1.08,1.45,1.45,0,0,1-.42,1.07,1.44,1.44,0,0,1-1.07.42h-2q-4.35,0-6.41,2.32a9.43,9.43,0,0,0-2.06,6.45V73.48a1.43,1.43,0,0,1-.48,1.1,1.59,1.59,0,0,1-1.13.45,1.48,1.48,0,0,1-1.14-.45,1.56,1.56,0,0,1-.41-1.1Z" transform="translate(-28.98 -19.01)"/><g id="Logo"><polygon class="cls-2" points="59.01 45.9 14.36 5.91 0.07 20.2 44.73 60.18 59.01 45.9"/><path class="cls-3" d="M88,64.91l-44.65-40L29.11,39.14a8.29,8.29,0,0,0,.77.8L73.71,79.19Z" transform="translate(-28.98 -19.01)"/><g class="cls-4"><polygon class="cls-5" points="59.01 45.9 14.36 5.91 0.07 20.2 44.73 60.18 59.01 45.9"/></g><path class="cls-6" d="M88,64.91H39.06a10.08,10.08,0,0,0,0,20.16H67.82Z" transform="translate(-28.98 -19.01)"/><path class="cls-7" d="M78.58,19H49.16L29,39.16H78.58a10.08,10.08,0,0,0,0-20.16Z" transform="translate(-28.98 -19.01)"/></g></g></g></svg>